# xmcd
#
# Track frame offsets:
#	150
#	16766
#	34771
#	48370
#	67516
#	88567
#	103834
#	122178
#	136464
#	155039
#	169433
#	189286
#	203195
#
# Disc length: 2879 seconds
#
# Revision: 0
# Processed by: cddbd v1.5.2PL0 Copyright (c) Steve Scherf et al.
# Submitted via: audiograbber 1.83.01
#
DISCID=ab0b3d0d
DTITLE=Reg Poole - Life
DYEAR=1900
DGENRE=Country
TTITLE0=Grandpas little girl
TTITLE1=Old soldiers home
TTITLE2=Super 8
TTITLE3=Your wedding day
TTITLE4=Ancient mountains
TTITLE5=If everyone
TTITLE6=With love from normandy
TTITLE7=One one was a race horse
TTITLE8=Rodeo heaven
TTITLE9=Hello silver moon and twinkling stars
TTITLE10=So long old mate  ( A tribute to Ray Rose )
TTITLE11=When youve cried all you can cry 
TTITLE12=Aussie mates
EXTD=
EXTT0=
EXTT1=
EXTT2=
EXTT3=
EXTT4=
EXTT5=
EXTT6=
EXTT7=
EXTT8=
EXTT9=
EXTT10=
EXTT11=
EXTT12=
PLAYORDER=
